<svg width="65" height="74" viewBox="0 0 65 74" fill="none" xmlns="http://www.w3.org/2000/svg">
<path d="M60.1072 12.0335C50.1479 12.0494 40.4553 8.87956 32.5006 3.00513C24.546 8.87963 14.8533 12.0495 4.89403 12.0335C4.07643 12.0335 3.25884 12.0141 2.45117 11.9698V28.9428C2.46144 44.1998 8.65573 58.2573 22.2536 65.6767L32.5006 71.2525L42.7476 65.6767C56.3455 58.2573 62.5398 44.1998 62.55 28.9428V11.9698C61.7413 12.0141 60.9237 12.0335 60.1072 12.0335Z" fill="white"/>
<path d="M60.1061 10.5585C50.4711 10.5883 41.0916 7.52157 33.4041 1.82781L32.4995 1.15991L31.5949 1.82781C23.9075 7.52181 14.528 10.5886 4.89292 10.5585C4.07122 10.5585 3.2769 10.538 2.53428 10.4971L0.945312 10.4098V28.9439C0.956611 45.9787 8.45639 59.8371 21.5222 66.9666L32.4995 72.9407L43.4782 66.9666C56.5426 59.8381 64.0424 45.9797 64.055 28.9439V10.4098L62.4661 10.4971C61.7211 10.538 60.9278 10.5585 60.1061 10.5585ZM61.0442 28.9419C61.0336 44.8755 54.0977 57.7952 42.0162 64.3869L32.4981 69.5657L22.9828 64.3879C10.8999 57.7952 3.9644 44.8755 3.95344 28.9429V13.5C4.26158 13.5056 4.57428 13.5085 4.89155 13.5087C14.7957 13.5394 24.4569 10.5044 32.4981 4.83638C40.5398 10.5046 50.2015 13.5395 60.1061 13.5087C60.4231 13.5087 60.7358 13.5058 61.0442 13.5V28.9419Z" fill="#449C8E"/>
<path d="M32.4991 74L21.0637 67.7768C7.68843 60.4795 0.0112985 46.3254 0 28.9446V9.42947L2.58769 9.57145C3.31182 9.61105 4.08731 9.63153 4.89292 9.63153C14.3228 9.66109 23.5027 6.65972 31.0266 1.0871L32.4988 0L33.971 1.0871C41.4954 6.66023 50.6761 9.66163 60.1067 9.63153C60.9127 9.63153 61.6882 9.61105 62.412 9.57145L65 9.42947V28.9429C64.9884 46.3254 57.3123 60.4792 43.939 67.7751L32.4991 74ZM1.89061 11.3902V28.9436C1.90259 45.632 9.22468 59.1968 21.982 66.156L32.4991 71.8792L43.019 66.155C55.7736 59.1954 63.0964 45.6317 63.1073 28.9422V11.3889L62.5171 11.4224C61.7587 11.4641 60.9469 11.4855 60.1057 11.4855C50.2655 11.5159 40.6863 8.38345 32.8354 2.56789L32.4991 2.3202L32.1629 2.56789C24.312 8.38365 14.7326 11.5161 4.89223 11.4855C4.05101 11.4855 3.23992 11.4641 2.48087 11.4224L1.89061 11.3902ZM32.4991 70.6259L22.525 65.1985C10.133 58.4369 3.02011 45.2226 3.0095 28.9436V12.5565L3.97227 12.573C4.27493 12.5783 4.58272 12.5814 4.89325 12.5814C14.599 12.6078 24.0663 9.63408 31.9489 4.08292L32.5002 3.6956L33.0514 4.08292C40.9339 9.63401 50.4011 12.6078 60.1067 12.5814C60.4176 12.5814 60.7246 12.5786 61.0277 12.573L61.9905 12.5565V28.9426C61.9796 45.2222 54.867 58.4366 42.477 65.1971L32.4991 70.6259ZM4.90011 14.4357V28.9429C4.91072 44.5291 11.6699 57.1531 23.4439 63.5777L32.4991 68.5051L41.5571 63.5764C53.3277 57.1528 60.0876 44.5298 60.0978 28.9412V14.4357C50.2297 14.4608 40.5933 11.5055 32.4991 5.97183C24.405 11.5056 14.7683 14.4609 4.90011 14.4357Z" fill="#449C8E"/>
<path d="M26.3585 50.7816C26.0311 50.7819 25.7068 50.7189 25.4043 50.596C25.1018 50.4732 24.8271 50.2929 24.5959 50.0657L14.9823 40.6405C14.5147 40.1821 14.252 39.5604 14.252 38.9121C14.252 38.2637 14.5147 37.642 14.9823 37.1836C15.45 36.7251 16.0842 36.4676 16.7456 36.4676C17.4069 36.4676 18.0412 36.7251 18.5088 37.1836L26.3605 44.8809L46.4954 24.1911C46.727 23.9641 47.0019 23.784 47.3044 23.6612C47.6069 23.5383 47.9312 23.4751 48.2587 23.4751C48.5861 23.4751 48.9104 23.5383 49.2129 23.6612C49.5154 23.784 49.7903 23.9641 50.0219 24.1911C50.2534 24.4181 50.4371 24.6875 50.5624 24.9841C50.6877 25.2807 50.7522 25.5985 50.7522 25.9195C50.7522 26.2406 50.6877 26.5584 50.5624 26.855C50.4371 27.1516 50.2534 27.421 50.0219 27.648L28.1241 50.065C27.8926 50.2927 27.6174 50.4733 27.3144 50.5962C27.0113 50.7192 26.6865 50.7822 26.3585 50.7816Z" fill="#42988B"/>
</svg>
