<svg width="74" height="74" viewBox="0 0 74 74" fill="none" xmlns="http://www.w3.org/2000/svg">
<path d="M37.5653 15.1208C37.4396 15.1207 37.3191 15.062 37.2303 14.9577C37.1415 14.8533 37.0915 14.7119 37.0915 14.5643V10.219C37.0915 7.8193 36.2795 5.51789 34.8341 3.82104C33.3887 2.12419 31.4283 1.1709 29.3841 1.1709C27.34 1.1709 25.3796 2.12419 23.9342 3.82104C22.4887 5.51789 21.6767 7.8193 21.6767 10.219V14.5643C21.6767 14.7119 21.6268 14.8535 21.5379 14.9578C21.449 15.0622 21.3284 15.1208 21.2027 15.1208C21.077 15.1208 20.9564 15.0622 20.8675 14.9578C20.7786 14.8535 20.7287 14.7119 20.7287 14.5643V10.219C20.7221 8.87978 20.9412 7.55226 21.3733 6.31278C21.8053 5.0733 22.4418 3.94629 23.2462 2.99661C24.0506 2.04692 25.0069 1.29327 26.0603 0.779005C27.1136 0.264734 28.2432 0 29.384 0C30.5248 0 31.6543 0.264734 32.7077 0.779005C33.761 1.29327 34.7174 2.04692 35.5218 2.99661C36.3261 3.94629 36.9626 5.0733 37.3947 6.31278C37.8267 7.55226 38.0458 8.87978 38.0393 10.219V14.5643C38.0393 14.7119 37.9894 14.8535 37.9005 14.9578C37.8116 15.0622 37.691 15.1208 37.5653 15.1208Z" fill="white"/>
<path d="M48.7917 10.8092H38.8184V74H48.7917V10.8092Z" fill="#F48FB1"/>
<path opacity="0.21" d="M48.7917 10.8092H38.8184V74H48.7917V10.8092Z" fill="#0A0A0A"/>
<path d="M38.8179 10.8092H0V74H38.8179V10.8092Z" fill="#F48FB1"/>
<path d="M27.5907 15.1208C27.465 15.1207 27.3445 15.062 27.2557 14.9577C27.1668 14.8533 27.1169 14.7119 27.1169 14.5643V10.219C27.1231 9.02617 26.9283 7.84366 26.5437 6.73955C26.1591 5.63543 25.5923 4.63148 24.876 3.78546C24.1597 2.93944 23.3079 2.26804 22.3697 1.80989C21.4316 1.35174 20.4255 1.11589 19.4094 1.11589C18.3933 1.11589 17.3872 1.35174 16.449 1.80989C15.5108 2.26804 14.6591 2.93944 13.9428 3.78546C13.2264 4.63148 12.6597 5.63543 12.2751 6.73955C11.8905 7.84366 11.6957 9.02617 11.7018 10.219V14.5643C11.7034 14.6385 11.6922 14.7123 11.6691 14.7814C11.646 14.8505 11.6113 14.9134 11.5672 14.9665C11.523 15.0197 11.4703 15.0619 11.412 15.0907C11.3537 15.1195 11.2912 15.1344 11.2279 15.1344C11.1647 15.1344 11.1021 15.1195 11.0439 15.0907C10.9856 15.0619 10.9328 15.0197 10.8887 14.9665C10.8445 14.9134 10.8099 14.8505 10.7867 14.7814C10.7636 14.7123 10.7525 14.6385 10.754 14.5643V10.219C10.7475 8.87978 10.9666 7.55226 11.3987 6.31278C11.8307 5.0733 12.4672 3.94629 13.2716 2.99661C14.076 2.04692 15.0323 1.29327 16.0857 0.779005C17.139 0.264734 18.2686 0 19.4094 0C20.5502 0 21.6797 0.264734 22.7331 0.779005C23.7864 1.29327 24.7428 2.04692 25.5471 2.99661C26.3515 3.94629 26.988 5.0733 27.4201 6.31278C27.8521 7.55226 28.0712 8.87978 28.0647 10.219V14.5643C28.0647 14.7119 28.0148 14.8535 27.9259 14.9578C27.837 15.0622 27.7164 15.1208 27.5907 15.1208Z" fill="white"/>
<path opacity="0.11" d="M38.8184 10.8092L43.805 17.1139L48.7914 10.8092H38.8184Z" fill="#0A0A0A"/>
<path opacity="0.11" d="M38.8184 74L43.805 67.6953L48.7914 74H38.8184Z" fill="#0A0A0A"/>
<path d="M73.9993 74H65.6881L62.3242 27.75H70.6354L73.9993 74Z" fill="#6C7DD7"/>
<path opacity="0.21" d="M73.9993 74H65.6881L62.3242 27.75H70.6354L73.9993 74Z" fill="#0A0A0A"/>
<path d="M65.6881 74H33.3398L36.7037 27.75H62.3242L65.6881 74Z" fill="#6C7DD7"/>
<path d="M49.5136 46.6743C48.5664 46.6743 47.6285 46.421 46.7534 45.9288C45.8783 45.4365 45.0831 44.7151 44.4134 43.8056C43.7436 42.8961 43.2123 41.8164 42.8499 40.6281C42.4874 39.4397 42.3009 38.1661 42.3009 36.8799V32.6907C42.2996 32.6192 42.3089 32.548 42.3281 32.4815C42.3474 32.4149 42.3763 32.3542 42.4131 32.303C42.4499 32.2518 42.4939 32.2111 42.5424 32.1833C42.591 32.1556 42.6431 32.1412 42.6958 32.1412C42.7485 32.1412 42.8006 32.1556 42.8492 32.1833C42.8977 32.2111 42.9417 32.2518 42.9785 32.303C43.0153 32.3542 43.0442 32.4149 43.0635 32.4815C43.0827 32.548 43.092 32.6192 43.0907 32.6907V36.8793C43.0907 39.1924 43.7674 41.4108 44.9719 43.0464C46.1764 44.682 47.8101 45.6009 49.5136 45.6009C51.217 45.6009 52.8507 44.682 54.0553 43.0464C55.2598 41.4108 55.9365 39.1924 55.9365 36.8793V32.6907C55.9365 32.5485 55.9781 32.412 56.0522 32.3114C56.1263 32.2108 56.2267 32.1543 56.3315 32.1543C56.4363 32.1543 56.5367 32.2108 56.6108 32.3114C56.6849 32.412 56.7265 32.5485 56.7265 32.6907V36.8793C56.7245 39.4761 55.9639 41.9658 54.6117 43.8021C53.2594 45.6384 51.426 46.6714 49.5136 46.6743Z" fill="white"/>
<path opacity="0.08" d="M62.3242 27.75L66.9126 33.8273L70.6354 27.75H62.3242Z" fill="#0A0A0A"/>
<path opacity="0.08" d="M65.6875 74L69.3995 67.9227L73.9986 74H65.6875Z" fill="#0A0A0A"/>
</svg>
