<svg width="80" height="74" viewBox="0 0 80 74" fill="none" xmlns="http://www.w3.org/2000/svg">
<path d="M77.7974 34.4681L64.287 9.23721C64.2144 9.07883 64.11 8.93801 63.9805 8.82403C63.851 8.71004 63.6995 8.62548 63.5359 8.57591C63.3722 8.52633 63.2002 8.51287 63.0312 8.5364C62.8621 8.55993 62.6998 8.61993 62.555 8.71244L33.4149 25.1232L4.24656 41.4766C4.09257 41.552 3.95588 41.66 3.8455 41.7935C3.73513 41.927 3.65355 42.083 3.60615 42.2511C3.55876 42.4193 3.54661 42.5958 3.57051 42.7691C3.59441 42.9425 3.65381 43.1086 3.74481 43.2567L17.1972 68.5203L19.2074 72.2926C19.2806 72.451 19.3856 72.5917 19.5156 72.7056C19.6455 72.8195 19.7974 72.904 19.9613 72.9534C20.1253 73.0029 20.2976 73.0163 20.4669 72.9927C20.6362 72.9691 20.7988 72.909 20.9439 72.8165L26.066 69.9458L43.2092 60.3352L43.2186 60.3453L50.1409 56.4472L57.0701 52.5613L57.0668 52.5479L74.1912 42.9038L79.3075 40.0217C79.4621 39.9462 79.5994 39.838 79.7103 39.7041C79.8212 39.5703 79.9033 39.4139 79.951 39.2452C79.9988 39.0765 80.0113 38.8993 79.9875 38.7254C79.9638 38.5514 79.9045 38.3845 79.8134 38.2358L77.7974 34.4681Z" fill="#449C8E"/>
<path opacity="0.47" d="M64.6146 17.9982C63.4291 18.6608 62.0363 18.8158 60.7398 18.4294C59.4433 18.0429 58.3483 17.1464 57.6936 15.9352L35.2563 28.5674L12.7995 41.1598C13.442 42.378 13.5889 43.8075 13.2083 45.1364C12.8277 46.4654 11.9504 47.5861 10.7676 48.2542L18.9014 63.5258C19.4081 63.24 19.9595 63.0469 20.5308 62.9549C21.211 62.8438 21.9061 62.8738 22.5748 63.0432C23.2435 63.2126 23.8722 63.5179 24.4238 63.9411C25.0042 64.3849 25.4827 64.9538 25.8257 65.6077L40.4532 57.4054L40.463 57.4159L48.3022 53.0031L56.1471 48.6021L56.1442 48.5874L70.7582 40.3584C70.4064 39.7094 70.1972 38.9894 70.1453 38.2488C70.0945 37.5438 70.1821 36.8355 70.4031 36.166C70.624 35.4964 70.9737 34.8791 71.4315 34.3507C71.8155 33.9064 72.2717 33.5338 72.7799 33.2496L64.6146 17.9982Z" fill="white"/>
<path d="M23.9784 53.9592C25.7388 53.9592 27.1658 52.4953 27.1658 50.6894C27.1658 48.8836 25.7388 47.4197 23.9784 47.4197C22.2181 47.4197 20.791 48.8836 20.791 50.6894C20.791 52.4953 22.2181 53.9592 23.9784 53.9592Z" fill="#449C8E"/>
<path d="M59.4999 34C61.2602 34 62.6873 32.536 62.6873 30.7302C62.6873 28.9244 61.2602 27.4604 59.4999 27.4604C57.7395 27.4604 56.3125 28.9244 56.3125 30.7302C56.3125 32.536 57.7395 34 59.4999 34Z" fill="#449C8E"/>
<path d="M42.1583 29.495C43.9513 29.5322 45.7061 30.0339 47.2595 30.9532C48.8129 31.8726 50.1145 33.1799 51.0435 34.7536C51.9305 36.3132 52.8735 38.1817 52.6778 41.778C52.5424 43.5834 51.953 45.3218 50.967 46.8237C50.5635 47.4768 50.0897 48.0814 49.5546 48.626C48.8085 49.4061 47.9537 50.0681 47.018 50.5905C45.3275 51.5405 43.4225 52.0157 41.4955 51.968C39.5685 51.9203 37.688 51.3514 36.0442 50.3189C34.4178 49.3136 33.0796 47.8847 32.1654 46.1774C32.1515 46.1606 32.147 46.1413 32.1336 46.125C30.7425 43.5054 30.4205 40.427 31.2383 37.5643C32.056 34.7017 33.9468 32.2884 36.4961 30.8534C36.6714 30.7599 36.8466 30.6665 37.024 30.5826C38.62 29.7859 40.3852 29.412 42.1583 29.495Z" fill="#449C8E"/>
<path d="M44.4234 47.1578L43.6496 45.7059C43.1687 45.9 42.6647 46.0269 42.1509 46.0831C41.6234 46.1533 41.088 46.1249 40.5704 45.9993L40.7102 44.054C41.1604 44.1316 41.6184 44.1504 42.0732 44.1102C42.4623 44.0718 42.8398 43.953 43.183 43.761C43.5067 43.6142 43.7688 43.3536 43.9221 43.0263C43.9675 42.8745 43.9797 42.7143 43.9579 42.557C43.9361 42.3998 43.8808 42.2495 43.7958 42.1167C43.7333 41.9951 43.6458 41.8889 43.5393 41.8053C43.4329 41.7217 43.31 41.6628 43.1793 41.6326C42.8644 41.5569 42.5421 41.5192 42.2187 41.5203C41.8553 41.5169 41.4707 41.5253 41.0648 41.5454C40.6621 41.5658 40.2583 41.5425 39.8603 41.4759C39.4703 41.4117 39.0943 41.278 38.7494 41.0806C38.379 40.8552 38.0792 40.526 37.8852 40.1317C37.5183 39.5006 37.3854 38.7551 37.5109 38.0317C37.659 37.3209 38.0466 36.6863 38.6055 36.2395L37.8084 34.744L39.1812 33.974L39.9629 35.441C40.4128 35.2616 40.8937 35.1781 41.3762 35.1954C41.8285 35.2173 42.2759 35.3019 42.7061 35.4469L42.3086 37.2538C41.9743 37.1609 41.6289 37.1166 41.2826 37.1222C40.9648 37.1385 40.6552 37.2313 40.3788 37.393C40.0928 37.5287 39.8595 37.7591 39.7165 38.0472C39.6684 38.1899 39.6533 38.342 39.6725 38.4917C39.6916 38.6413 39.7445 38.7844 39.8268 38.9094C39.8863 39.023 39.9703 39.121 40.0724 39.1962C40.1746 39.2713 40.2921 39.3214 40.416 39.3428C40.7248 39.4024 41.0393 39.4253 41.3533 39.4111C41.7074 39.4003 42.087 39.3824 42.492 39.3575C42.8932 39.3323 43.2958 39.3533 43.6925 39.42C44.0887 39.4862 44.4694 39.6275 44.8153 39.8366C45.1995 40.0843 45.5103 40.435 45.7142 40.8509C46.0739 41.4858 46.2159 42.226 46.1174 42.9533C45.9837 43.7139 45.5831 44.398 44.9914 44.8764L45.7963 46.3853L44.4234 47.1578Z" fill="white"/>
<path d="M69.4438 21.0249L49.8376 0.430621C49.7263 0.298023 49.5889 0.191108 49.4344 0.116914C49.2799 0.0427208 49.1118 0.00292715 48.9413 0.000155497C48.7707 -0.00261616 48.6015 0.0316928 48.4448 0.100829C48.2881 0.169966 48.1474 0.272363 48.0321 0.401278L24.2461 24.223L0.414761 47.9982C0.286089 48.1131 0.182606 48.2547 0.111128 48.4136C0.0396508 48.5726 0.00179962 48.7452 6.26226e-05 48.9202C-0.00167437 49.0952 0.0327417 49.2687 0.10105 49.4291C0.169359 49.5894 0.270008 49.7332 0.396372 49.8508L19.9559 70.4903L22.8773 73.5702C22.9892 73.7027 23.1271 73.8095 23.2821 73.8836C23.437 73.9576 23.6054 73.9973 23.7763 73.9999C23.9472 74.0025 24.1167 73.968 24.2737 73.8987C24.4307 73.8295 24.5717 73.7269 24.6874 73.5979L28.8721 69.4236L42.8777 55.4522L42.8892 55.4594L48.5404 49.8009L54.201 44.1525L54.194 44.1399L68.1726 30.1405L72.3488 25.9574C72.4776 25.8421 72.5812 25.7002 72.6527 25.5409C72.7243 25.3817 72.7623 25.2087 72.7642 25.0334C72.7661 24.858 72.7318 24.6843 72.6637 24.5234C72.5956 24.3626 72.4951 24.2184 72.3688 24.1002L69.4438 21.0249Z" fill="#449C8E"/>
<path opacity="0.47" d="M52.4383 8.78207C51.4694 9.74669 50.168 10.2792 48.8179 10.2635C47.4678 10.2478 46.1785 9.68515 45.2312 8.69824L26.9162 27.0367L8.57099 45.3416C9.50817 46.3386 10.0231 47.6753 10.0036 49.0603C9.9841 50.4452 9.43169 51.766 8.4668 52.7349L20.2926 65.2116C20.7065 64.7972 21.1873 64.4595 21.7136 64.2136C22.3399 63.9196 23.0173 63.7576 23.7057 63.737C24.3941 63.7164 25.0796 63.8377 25.7215 64.0937C26.3967 64.3616 27.0065 64.7781 27.5078 65.3139L39.4586 53.3892L39.4713 53.3967L45.8706 46.9901L52.2797 40.5935L52.2728 40.5805L64.2036 28.6349C63.6952 28.1072 63.3054 27.4719 63.0616 26.7735C62.8287 26.1084 62.7282 25.4022 62.7662 24.6967C62.8042 23.9911 62.9798 23.3005 63.2826 22.6658C63.5359 22.1325 63.8773 21.6482 64.2918 21.2345L52.4383 8.78207Z" fill="white"/>
<path d="M21.8319 54.7187C23.5923 54.7187 25.0193 53.2548 25.0193 51.449C25.0193 49.6431 23.5923 48.1792 21.8319 48.1792C20.0716 48.1792 18.6445 49.6431 18.6445 51.449C18.6445 53.2548 20.0716 54.7187 21.8319 54.7187Z" fill="#449C8E"/>
<path d="M50.8397 25.7235C52.6001 25.7235 54.0271 24.2595 54.0271 22.4537C54.0271 20.6479 52.6001 19.184 50.8397 19.184C49.0794 19.184 47.6523 20.6479 47.6523 22.4537C47.6523 24.2595 49.0794 25.7235 50.8397 25.7235Z" fill="#449C8E"/>
<path d="M33.8091 26.032C35.5463 25.5748 37.3679 25.5756 39.1047 26.0343C40.8415 26.4929 42.4371 27.3946 43.7431 28.6555C45.0053 29.9129 46.4022 31.4545 47.1536 34.9732C47.4948 36.7497 47.3809 38.5866 46.8231 40.3044C46.6049 41.0442 46.3062 41.7564 45.9328 42.4277C45.418 43.3844 44.7675 44.2572 44.0026 45.0176C42.6219 46.3978 40.9104 47.3795 39.0412 47.8632C37.1719 48.347 35.2113 48.3158 33.3576 47.7727C31.5282 47.2513 29.8658 46.2427 28.5391 44.8491C28.5216 44.8366 28.5122 44.8194 28.4946 44.8072C26.47 42.6659 25.3556 39.7886 25.3956 36.8058C25.4356 33.823 26.6267 30.9782 28.7079 28.8948C28.8525 28.7565 28.9968 28.6186 29.1459 28.4887C30.476 27.2833 32.0792 26.4387 33.8091 26.032Z" fill="#449C8E"/>
<path d="M40.6067 42.4256L39.4818 41.2394C39.07 41.559 38.6182 41.8202 38.1384 42.0161C37.6485 42.2282 37.1253 42.3476 36.5939 42.3686L36.2205 40.4561C36.6744 40.407 37.1204 40.2993 37.548 40.1354C37.9128 39.9914 38.2456 39.7733 38.5262 39.4941C38.7997 39.2636 38.984 38.9405 39.0459 38.5829C39.0499 38.4242 39.0198 38.2665 38.9578 38.121C38.8957 37.9755 38.8032 37.8459 38.6867 37.7412C38.5947 37.6414 38.4826 37.5631 38.3583 37.5118C38.2339 37.4605 38.1002 37.4374 37.9664 37.4441C37.6433 37.458 37.3228 37.5105 37.0115 37.6004C36.6607 37.6968 36.2923 37.8105 35.9063 37.9416C35.5237 38.0721 35.1287 38.1606 34.7279 38.2057C34.3354 38.2513 33.938 38.2259 33.554 38.1306C33.1385 38.0153 32.7637 37.7806 32.4737 37.4541C31.9556 36.947 31.6329 36.2654 31.5646 35.534C31.5213 34.8084 31.7289 34.0903 32.1509 33.5062L30.9922 32.2844L32.1138 31.1653L33.2496 32.3632C33.6363 32.0666 34.0779 31.854 34.5473 31.7383C34.9893 31.6353 35.4429 31.5944 35.8957 31.6167L35.9847 33.4668C35.6389 33.4695 35.2951 33.5217 34.9633 33.6219C34.6614 33.7249 34.3874 33.8996 34.1637 34.1316C33.9235 34.3409 33.759 34.627 33.6966 34.9439C33.6873 35.0946 33.7125 35.2454 33.77 35.3844C33.8275 35.5234 33.9159 35.6467 34.028 35.7444C34.1151 35.8373 34.2216 35.9086 34.3396 35.9528C34.4575 35.9971 34.5838 36.0131 34.7087 35.9997C35.0219 35.9722 35.3309 35.9078 35.6297 35.8077C35.9696 35.6996 36.3305 35.578 36.7124 35.4431C37.0924 35.3085 37.4859 35.218 37.8855 35.1731C38.2845 35.1283 38.6882 35.1597 39.0761 35.2658C39.511 35.3988 39.9021 35.6513 40.2071 35.9959C40.72 36.5086 41.0508 37.1826 41.1468 37.9106C41.2165 38.6802 41.0092 39.4493 40.5642 40.073L41.734 41.3065L40.6067 42.4256Z" fill="white"/>
</svg>
