<svg width="70" height="75" viewBox="0 0 70 75" fill="none" xmlns="http://www.w3.org/2000/svg">
<path d="M35 75.0001C54.33 75.0001 70 60.0507 70 41.6096C70 23.1686 54.33 8.21924 35 8.21924C15.67 8.21924 0 23.1686 0 41.6096C0 60.0507 15.67 75.0001 35 75.0001Z" fill="#0D082D"/>
<path opacity="0.86" d="M35 75.0001C54.33 75.0001 70 60.0507 70 41.6096C70 23.1686 54.33 8.21924 35 8.21924C15.67 8.21924 0 23.1686 0 41.6096C0 60.0507 15.67 75.0001 35 75.0001Z" fill="white"/>
<path opacity="0.1" d="M16.5743 42.123L23.8701 52.0297L11.6716 53.9658L7.58594 48.7063L16.5743 42.123Z" fill="#0D082D"/>
<path opacity="0.1" d="M63.5592 26.8887L58.6565 22.9944L53.209 30.3488L54.9131 32.2297L63.5592 26.8887Z" fill="#0D082D"/>
<path opacity="0.1" d="M13.4414 30.3487L17.9498 27.1379L21.7523 33.0325L17.3648 35.2312L13.4414 30.3487Z" fill="#0D082D"/>
<path opacity="0.1" d="M40.0488 65.9574L45.2371 61.9297L48.4413 65.9574L42.6634 69.7251L40.0488 65.9574Z" fill="#0D082D"/>
<path opacity="0.1" d="M19.2773 36.8545L23.9855 33.5728L27.7409 38.2837L25.6982 40.2742L28.7408 44.0187L31.5542 42.1232L34.8323 46.0791L28.7408 50.3666L19.2773 36.8545Z" fill="#0D082D"/>
<path d="M69.9477 43.4333L52.4139 54.7587L60.4905 64.4893C60.2504 64.7339 60.006 64.9745 59.7574 65.2109L51.5612 55.3364L37.32 65.4644L43.6276 73.9775C43.2644 74.0661 42.899 74.1484 42.5313 74.2244L36.1739 65.6426L27.2538 53.7759L11.6376 56.7774L12.887 67.492C12.4926 67.1854 12.1059 66.8707 11.7269 66.5479L10.5656 56.5882L0.194268 45.1421C0.131622 44.5865 0.084444 44.0269 0.0527344 43.4632L11.2617 55.8345L26.5856 52.8883L5.07797 24.2775C5.27287 23.971 5.47319 23.6677 5.67891 23.3678L27.7082 52.6725L27.8289 52.6492L43.8987 41.8617L32.5157 27.7638L34.1596 8.22956C34.4392 8.22292 34.7191 8.2196 34.9995 8.2196C35.0691 8.2196 35.1387 8.2196 35.2083 8.22071L33.5888 27.4606L44.7537 41.2873L66.3653 26.7799C66.5231 27.0809 66.6755 27.3849 66.8224 27.6919L28.3451 53.5203L36.7141 64.6531L51.7503 53.9599L51.7642 53.9765L69.993 42.2017C69.986 42.6143 69.9709 43.0238 69.9477 43.4333Z" fill="white"/>
<path d="M34.9993 0C26.7007 0 20 6.43587 20 14.374C20 16.87 20.9875 19.6816 21.83 21.2647C24.5957 26.4647 34.8327 41.0048 34.8327 41.0048C34.85 41.0326 34.8745 41.0556 34.9038 41.0715C34.9332 41.0875 34.9663 41.0959 35 41.0959C35.0338 41.0959 35.0669 41.0875 35.0962 41.0715C35.1256 41.0556 35.1501 41.0326 35.1674 41.0048C35.1674 41.0048 45.4043 26.4647 48.17 21.2647C49.0121 19.6812 50 16.87 50 14.374C50 6.43553 43.2992 0 35.0007 0H34.9993Z" fill="#BD3041"/>
<path opacity="0.12" d="M34.9993 0C26.7007 0 20 6.43587 20 14.374C20 16.87 20.9875 19.6816 21.83 21.2647C24.5957 26.4647 34.8327 41.0048 34.8327 41.0048C34.85 41.0326 34.8745 41.0556 34.9038 41.0715C34.9332 41.0875 34.9663 41.0959 35 41.0959C35.0338 41.0959 35.0669 41.0875 35.0962 41.0715C35.1256 41.0556 35.1501 41.0326 35.1674 41.0048C35.1674 41.0048 45.4043 26.4647 48.17 21.2647C49.0121 19.6812 50 16.87 50 14.374C50 6.43553 43.2992 0 35.0007 0H34.9993Z" fill="white"/>
</svg>
