<svg width="60" height="74" viewBox="0 0 60 74" fill="none" xmlns="http://www.w3.org/2000/svg">
<path d="M55.5144 4.44446H4.48565C2.00829 4.44446 0 6.37842 0 8.76409V69.6803C0 72.066 2.00829 74 4.48565 74H55.5144C57.9917 74 60 72.066 60 69.6803V8.76409C60 6.37842 57.9917 4.44446 55.5144 4.44446Z" fill="#0D082D"/>
<path d="M55.0923 8.16357H4.90868C4.23532 8.16357 3.68945 8.68924 3.68945 9.33768V69.1066C3.68945 69.755 4.23532 70.2807 4.90868 70.2807H55.0923C55.7657 70.2807 56.3116 69.755 56.3116 69.1066V9.33768C56.3116 8.68924 55.7657 8.16357 55.0923 8.16357Z" fill="#DEE8F5"/>
<path d="M43.5969 0H16.4367C15.0306 0 13.8906 1.09774 13.8906 2.45188V8.66378C13.8906 10.0179 15.0306 11.1157 16.4367 11.1157H43.5969C45.0031 11.1157 46.143 10.0179 46.143 8.66378V2.45188C46.143 1.09774 45.0031 0 43.5969 0Z" fill="#0D082D"/>
<path d="M53.2541 23.4213H6.6543V24.9053H53.2541V23.4213Z" fill="#5A4B4B"/>
<path d="M32.4407 26.3416H6.6543V27.8256H32.4407V26.3416Z" fill="#5A4B4B"/>
<path d="M13.4139 47.1944H7.21327C7.0702 47.1944 6.93299 47.1397 6.83183 47.0422C6.73066 46.9448 6.67383 46.8127 6.67383 46.6749V40.7038C6.67383 40.566 6.73066 40.4339 6.83183 40.3365C6.93299 40.2391 7.0702 40.1843 7.21327 40.1843H13.4139C13.4847 40.1843 13.5549 40.1977 13.6204 40.2238C13.6859 40.2499 13.7454 40.2881 13.7955 40.3364C13.8456 40.3846 13.8854 40.4419 13.9125 40.5049C13.9396 40.568 13.9536 40.6356 13.9536 40.7038V46.6749C13.9536 46.7432 13.9396 46.8107 13.9125 46.8738C13.8854 46.9368 13.8456 46.9941 13.7955 47.0423C13.7454 47.0906 13.6859 47.1288 13.6204 47.1549C13.5549 47.181 13.4847 47.1944 13.4139 47.1944ZM7.75299 46.1554H12.8753V41.2227H7.75299V46.1554Z" fill="#0D082D"/>
<path d="M44.8137 41.179H15.9785V42.7739H44.8137V41.179Z" fill="#5A4B4B"/>
<path d="M40.1397 44.6053H15.9785V46.2003H40.1397V44.6053Z" fill="#5A4B4B"/>
<path d="M13.4139 67.183H7.21327C7.0702 67.183 6.93299 67.1283 6.83183 67.0309C6.73066 66.9335 6.67383 66.8013 6.67383 66.6636V60.6924C6.6739 60.5547 6.73075 60.4226 6.8319 60.3252C6.93304 60.2278 7.07022 60.173 7.21327 60.173H13.4139C13.557 60.173 13.6942 60.2277 13.7954 60.3251C13.8966 60.4225 13.9535 60.5546 13.9536 60.6924V66.6636C13.9536 66.7318 13.9396 66.7994 13.9125 66.8624C13.8854 66.9255 13.8456 66.9827 13.7955 67.031C13.7454 67.0792 13.6859 67.1175 13.6204 67.1436C13.5549 67.1697 13.4847 67.1831 13.4139 67.183ZM7.75299 66.1441H12.8753V61.2114H7.75299V66.1441Z" fill="#0D082D"/>
<path d="M44.8137 61.1674H15.9785V62.7623H44.8137V61.1674Z" fill="#5A4B4B"/>
<path d="M40.1397 64.5938H15.9785V66.1887H40.1397V64.5938Z" fill="#5A4B4B"/>
<path d="M13.4139 37.2001H7.21327C7.0702 37.2001 6.93299 37.1454 6.83183 37.0479C6.73066 36.9505 6.67383 36.8184 6.67383 36.6806V30.7095C6.6739 30.5718 6.73076 30.4397 6.83192 30.3424C6.93307 30.245 7.07025 30.1903 7.21327 30.1903H13.4139C13.4847 30.1903 13.5549 30.2037 13.6203 30.2297C13.6858 30.2558 13.7453 30.294 13.7954 30.3423C13.8455 30.3905 13.8853 30.4477 13.9124 30.5107C13.9396 30.5737 13.9535 30.6413 13.9536 30.7095V36.6806C13.9536 36.7489 13.9396 36.8164 13.9125 36.8795C13.8854 36.9425 13.8456 36.9998 13.7955 37.048C13.7454 37.0963 13.6859 37.1345 13.6204 37.1606C13.5549 37.1867 13.4847 37.2001 13.4139 37.2001ZM7.75299 36.1611H12.8753V31.2284H7.75299V36.1611Z" fill="#0D082D"/>
<path d="M44.8137 31.1843H15.9785V32.7792H44.8137V31.1843Z" fill="#5A4B4B"/>
<path d="M40.1397 34.6107H15.9785V36.2056H40.1397V34.6107Z" fill="#5A4B4B"/>
<path d="M13.4139 57.1882H7.21327C7.07022 57.1881 6.93304 57.1334 6.8319 57.036C6.73075 56.9386 6.6739 56.8065 6.67383 56.6687V50.6982C6.67383 50.5604 6.73066 50.4283 6.83183 50.3309C6.93299 50.2334 7.0702 50.1787 7.21327 50.1787H13.4139C13.4847 50.1787 13.5549 50.1921 13.6204 50.2182C13.6859 50.2443 13.7454 50.2825 13.7955 50.3308C13.8456 50.379 13.8854 50.4363 13.9125 50.4993C13.9396 50.5624 13.9536 50.6299 13.9536 50.6982V56.6693C13.9534 56.807 13.8964 56.939 13.7952 57.0363C13.694 57.1336 13.5569 57.1882 13.4139 57.1882ZM7.75299 56.1493H12.8753V51.2165H7.75299V56.1493Z" fill="#0D082D"/>
<path d="M44.8137 51.1731H15.9785V52.768H44.8137V51.1731Z" fill="#5A4B4B"/>
<path d="M40.1397 54.5996H15.9785V56.1945H40.1397V54.5996Z" fill="#5A4B4B"/>
<path d="M-nan -nanL9.96529 45.4431C9.9514 45.4431 9.93808 45.4431 9.92419 45.4431C9.84536 45.4377 9.76853 45.4168 9.6984 45.3817C9.62827 45.3466 9.56634 45.2981 9.51643 45.2391L8.25525 43.7489C8.15823 43.6344 8.11245 43.4874 8.12797 43.3403C8.14349 43.1933 8.21905 43.0581 8.33802 42.9647C8.45699 42.8713 8.60961 42.8272 8.76233 42.8422C8.91505 42.8571 9.05536 42.9299 9.15237 43.0444C9.63102 43.6099 10.4813 43.6704 11.0352 43.1784L14.3288 40.2531C14.3847 40.2035 14.4502 40.1649 14.5215 40.1397C14.5929 40.1144 14.6687 40.103 14.7447 40.1059C14.8206 40.1089 14.8952 40.1262 14.9642 40.157C15.0332 40.1877 15.0953 40.2312 15.1468 40.285C15.1983 40.3388 15.2383 40.4019 15.2646 40.4706C15.2908 40.5393 15.3027 40.6123 15.2996 40.6855C15.2966 40.7586 15.2785 40.8305 15.2466 40.8969C15.2147 40.9634 15.1695 41.0231 15.1137 41.0727L10.3577 45.2954C10.2508 45.3903 10.1107 45.4431 9.96529 45.4431L-nan -nanZ" fill="white"/>
</svg>
