<svg width="22" height="20" viewBox="0 0 22 20" fill="none" xmlns="http://www.w3.org/2000/svg">
<path fill-rule="evenodd" clip-rule="evenodd" d="M7.875 15.8926C7.27344 15.8926 6.75 16.4002 6.75 17.0711C6.75 17.742 7.27344 18.2496 7.875 18.2496C8.47656 18.2496 9 17.742 9 17.0711C9 16.4002 8.47656 15.8926 7.875 15.8926ZM5.25 17.0711C5.25 15.6118 6.40549 14.3926 7.875 14.3926C9.34451 14.3926 10.5 15.6118 10.5 17.0711C10.5 18.5304 9.34451 19.7496 7.875 19.7496C6.40549 19.7496 5.25 18.5304 5.25 17.0711Z" fill="white"/>
<path fill-rule="evenodd" clip-rule="evenodd" d="M15.3755 15.8926C14.7739 15.8926 14.2505 16.4002 14.2505 17.0711C14.2505 17.742 14.7739 18.2496 15.3755 18.2496C15.977 18.2496 16.5005 17.742 16.5005 17.0711C16.5005 16.4002 15.977 15.8926 15.3755 15.8926ZM12.7505 17.0711C12.7505 15.6118 13.906 14.3926 15.3755 14.3926C16.845 14.3926 18.0005 15.6118 18.0005 17.0711C18.0005 18.5304 16.845 19.7496 15.3755 19.7496C13.906 19.7496 12.7505 18.5304 12.7505 17.0711Z" fill="white"/>
<path fill-rule="evenodd" clip-rule="evenodd" d="M0.875 1C0.875 0.585786 1.21079 0.25 1.625 0.25H3.77856C4.41521 0.25 4.95014 0.728494 5.02083 1.3612L6.04587 10.5355H17.7729C17.8813 10.5355 17.9773 10.4656 18.0107 10.3625L19.8625 4.64844C19.9149 4.48695 19.7945 4.32137 19.6247 4.32137H7.875C7.46079 4.32137 7.125 3.98558 7.125 3.57137C7.125 3.15715 7.46079 2.82137 7.875 2.82137H19.6247C20.813 2.82137 21.6558 3.98043 21.2895 5.11088L19.4376 10.825C19.2038 11.5467 18.5315 12.0355 17.7729 12.0355H5.57908L4.5483 12.6413C4.47808 12.6826 4.45059 12.7267 4.43722 12.7629C4.42143 12.8058 4.41737 12.8623 4.43374 12.9225C4.45012 12.9826 4.48226 13.0293 4.51758 13.0582C4.54748 13.0827 4.59352 13.1068 4.67497 13.1068H17.25C17.6642 13.1068 18 13.4426 18 13.8568C18 14.271 17.6642 14.6068 17.25 14.6068H4.67497C2.89172 14.6068 2.25086 12.2517 3.78824 11.3481L4.57563 10.8853L3.55494 1.75H1.625C1.21079 1.75 0.875 1.41421 0.875 1Z" fill="white"/>
</svg>
