<svg width="24" height="24" viewBox="0 0 24 24" fill="none" xmlns="http://www.w3.org/2000/svg">
<path fill-rule="evenodd" clip-rule="evenodd" d="M5.62001 2.72096C3.05215 3.754 0.963791 6.44177 1.28213 10.4119C1.52104 13.3914 3.16368 15.8148 5.10424 17.6382C7.04581 19.4625 9.34365 20.7434 11.0415 21.4475C11.6221 21.6882 12.2747 21.7022 12.8675 21.4765C14.6496 20.7979 16.9391 19.5233 18.861 17.6913C20.7812 15.8611 22.381 13.4274 22.6669 10.4373C23.2053 6.40583 21.0528 3.72439 18.412 2.71307C16.2069 1.86866 13.5168 2.17126 11.9563 3.97115C10.3877 2.15762 7.79038 1.84782 5.62001 2.72096ZM6.17985 4.11256C8.18865 3.30443 10.3527 3.84551 11.2957 5.65482C11.426 5.90471 11.6853 6.06051 11.9671 6.05816C12.2489 6.0558 12.5055 5.89569 12.6316 5.64366C13.5086 3.89005 15.7648 3.30557 17.8755 4.11387C19.9067 4.8917 21.6258 6.93967 21.1784 10.2516C21.177 10.2616 21.1759 10.2717 21.1749 10.2817C20.9374 12.8074 19.5818 14.932 17.8261 16.6056C16.0689 18.2805 13.9576 19.4563 12.3337 20.0747C12.1042 20.1621 11.8482 20.1581 11.616 20.0619C10.0458 19.4107 7.91291 18.219 6.13138 16.545C4.34885 14.8702 2.97602 12.7698 2.77733 10.292C2.5115 6.9767 4.22031 4.90089 6.17985 4.11256Z" fill="white"/>
</svg>
