<svg width="24" height="24" viewBox="0 0 24 24" fill="none" xmlns="http://www.w3.org/2000/svg">
<path fill-rule="evenodd" clip-rule="evenodd" d="M1.25 5C1.25 2.92893 2.92893 1.25 5 1.25H7.57143C9.6425 1.25 11.3214 2.92893 11.3214 5V7.57143C11.3214 9.6425 9.6425 11.3214 7.57143 11.3214H5C2.92893 11.3214 1.25 9.6425 1.25 7.57143V5ZM5 2.75C3.75736 2.75 2.75 3.75736 2.75 5V7.57143C2.75 8.81407 3.75736 9.82143 5 9.82143H7.57143C8.81407 9.82143 9.82143 8.81407 9.82143 7.57143V5C9.82143 3.75736 8.81407 2.75 7.57143 2.75H5Z" fill="white"/>
<path fill-rule="evenodd" clip-rule="evenodd" d="M12.6786 5C12.6786 2.92893 14.3575 1.25 16.4286 1.25H19C21.0711 1.25 22.75 2.92893 22.75 5V7.57143C22.75 9.6425 21.0711 11.3214 19 11.3214H16.4286C14.3575 11.3214 12.6786 9.6425 12.6786 7.57143V5ZM16.4286 2.75C15.1859 2.75 14.1786 3.75736 14.1786 5V7.57143C14.1786 8.81407 15.1859 9.82143 16.4286 9.82143H19C20.2427 9.82143 21.25 8.81407 21.25 7.57143V5C21.25 3.75736 20.2427 2.75 19 2.75H16.4286Z" fill="white"/>
<path fill-rule="evenodd" clip-rule="evenodd" d="M12.6786 16.4286C12.6786 14.3575 14.3575 12.6786 16.4286 12.6786H19C21.0711 12.6786 22.75 14.3575 22.75 16.4286V19C22.75 21.0711 21.0711 22.75 19 22.75H16.4286C14.3575 22.75 12.6786 21.0711 12.6786 19V16.4286ZM16.4286 14.1786C15.1859 14.1786 14.1786 15.1859 14.1786 16.4286V19C14.1786 20.2427 15.1859 21.25 16.4286 21.25H19C20.2427 21.25 21.25 20.2427 21.25 19V16.4286C21.25 15.1859 20.2427 14.1786 19 14.1786H16.4286Z" fill="white"/>
<path fill-rule="evenodd" clip-rule="evenodd" d="M1.25 16.4286C1.25 14.3575 2.92893 12.6786 5 12.6786H7.57143C9.6425 12.6786 11.3214 14.3575 11.3214 16.4286V19C11.3214 21.0711 9.6425 22.75 7.57143 22.75H5C2.92893 22.75 1.25 21.0711 1.25 19V16.4286ZM5 14.1786C3.75736 14.1786 2.75 15.1859 2.75 16.4286V19C2.75 20.2427 3.75736 21.25 5 21.25H7.57143C8.81407 21.25 9.82143 20.2427 9.82143 19V16.4286C9.82143 15.1859 8.81407 14.1786 7.57143 14.1786H5Z" fill="white"/>
</svg>
